<svg width="800" height="400" viewBox="0 0 800 400" fill="none" xmlns="http://www.w3.org/2000/svg">
<rect width="800" height="400" fill="#0F172A"/>
<circle cx="200" cy="200" r="120" fill="url(#paint0_linear_3_3)" fill-opacity="0.1"/>
<circle cx="600" cy="200" r="120" fill="url(#paint1_linear_3_3)" fill-opacity="0.1"/>
<rect x="150" y="150" width="100" height="100" rx="20" fill="#8B5CF6"/>
<circle cx="180" cy="190" r="10" fill="white"/>
<circle cx="220" cy="190" r="10" fill="white"/>
<rect x="170" y="220" width="60" height="10" rx="5" fill="white"/>
<path d="M550 150H650C661 150 670 159 670 170V230C670 241 661 250 650 250H570L550 270V170C550 159 559 150 570 150Z" fill="#22C55E"/>
<circle cx="590" cy="200" r="8" fill="white"/>
<circle cx="620" cy="200" r="8" fill="white"/>
<circle cx="650" cy="200" r="8" fill="white"/>
<defs>
<linearGradient id="paint0_linear_3_3" x1="200" y1="80" x2="200" y2="320" gradientUnits="userSpaceOnUse">
<stop stop-color="#8B5CF6"/>
<stop offset="1" stop-color="#0F172A" stop-opacity="0"/>
</linearGradient>
<linearGradient id="paint1_linear_3_3" x1="600" y1="80" x2="600" y2="320" gradientUnits="userSpaceOnUse">
<stop stop-color="#22C55E"/>
<stop offset="1" stop-color="#0F172A" stop-opacity="0"/>
</linearGradient>
</defs>
</svg>
