<svg width="800" height="400" viewBox="0 0 800 400" fill="none" xmlns="http://www.w3.org/2000/svg">
<rect width="800" height="400" fill="#0F172A"/>
<path d="M400 50C400 50 550 80 550 200C550 300 400 380 400 380C400 380 250 300 250 200C250 80 400 50 400 50Z" fill="#475569" stroke="#94A3B8" stroke-width="4"/>
<rect x="350" y="180" width="100" height="80" rx="10" fill="#F8FAFC"/>
<path d="M370 180V160C370 143.431 383.431 130 400 130C416.569 130 430 143.431 430 160V180" stroke="#F8FAFC" stroke-width="8"/>
<circle cx="400" cy="220" r="8" fill="#1E293B"/>
<path d="M400 220V240" stroke="#1E293B" stroke-width="4"/>
<circle cx="650" cy="100" r="50" fill="#22C55E" fill-opacity="0.1"/>
<path d="M620 100L640 120L680 80" stroke="#22C55E" stroke-width="4" stroke-linecap="round" stroke-linejoin="round"/>
</svg>
