<svg width="800" height="400" viewBox="0 0 800 400" fill="none" xmlns="http://www.w3.org/2000/svg">
<rect width="800" height="400" fill="#0F172A"/>
<circle cx="200" cy="300" r="150" fill="url(#paint0_linear_1_2)" fill-opacity="0.2"/>
<circle cx="600" cy="100" r="100" fill="url(#paint1_linear_1_2)" fill-opacity="0.2"/>
<path d="M400 120C400 120 440 160 440 200C440 240 400 280 400 280C400 280 360 240 360 200C360 160 400 120 400 120Z" fill="#22C55E"/>
<path d="M480 180C480 180 500 200 500 220C500 240 480 260 480 260C480 260 460 240 460 220C460 200 480 180 480 180Z" fill="#22C55E" fill-opacity="0.5"/>
<path d="M320 180C320 180 340 200 340 220C340 240 320 260 320 260C320 260 300 240 300 220C300 200 320 180 320 180Z" fill="#EF4444" fill-opacity="0.8"/>
<defs>
<linearGradient id="paint0_linear_1_2" x1="200" y1="150" x2="200" y2="450" gradientUnits="userSpaceOnUse">
<stop stop-color="#22C55E"/>
<stop offset="1" stop-color="#0F172A" stop-opacity="0"/>
</linearGradient>
<linearGradient id="paint1_linear_1_2" x1="600" y1="0" x2="600" y2="200" gradientUnits="userSpaceOnUse">
<stop stop-color="#22C55E"/>
<stop offset="1" stop-color="#0F172A" stop-opacity="0"/>
</linearGradient>
</defs>
</svg>
